<?xml version="1.0" encoding="UTF-8" standalone="no"?>
<!DOCTYPE svg PUBLIC "-//W3C//DTD SVG 1.1//EN" "http://www.w3.org/Graphics/SVG/1.1/DTD/svg11.dtd">
<!-- Created with Vectornator (http://vectornator.io/) -->
<svg height="1160.0px" stroke-miterlimit="10" style="fill-rule:nonzero;clip-rule:evenodd;stroke-linecap:round;stroke-linejoin:round;" version="1.1" viewBox="0 0 1160 1160" width="1160.0px" xml:space="preserve" xmlns="http://www.w3.org/2000/svg" xmlns:xlink="http://www.w3.org/1999/xlink">
<defs/>
<g id="Untitled">
<g opacity="1">
<path d="M408 100C408 93.3726 413.373 88 420 88C426.627 88 432 93.3726 432 100C432 106.627 426.627 112 420 112C413.373 112 408 106.627 408 100Z" fill="#000000" fill-rule="nonzero" opacity="1" stroke="none"/>
<path d="M448 100C448 93.3726 453.373 88 460 88C466.627 88 472 93.3726 472 100C472 106.627 466.627 112 460 112C453.373 112 448 106.627 448 100Z" fill="#000000" fill-rule="nonzero" opacity="1" stroke="none"/>
<path d="M568 100C568 93.3726 573.373 88 580 88C586.627 88 592 93.3726 592 100C592 106.627 586.627 112 580 112C573.373 112 568 106.627 568 100Z" fill="#000000" fill-rule="nonzero" opacity="1" stroke="none"/>
<path d="M608 100C608 93.3726 613.373 88 620 88C626.627 88 632 93.3726 632 100C632 106.627 626.627 112 620 112C613.373 112 608 106.627 608 100Z" fill="#000000" fill-rule="nonzero" opacity="1" stroke="none"/>
<path d="M648 100C648 93.3726 653.373 88 660 88C666.627 88 672 93.3726 672 100C672 106.627 666.627 112 660 112C653.373 112 648 106.627 648 100Z" fill="#000000" fill-rule="nonzero" opacity="1" stroke="none"/>
<path d="M448 140C448 133.373 453.373 128 460 128C466.627 128 472 133.373 472 140C472 146.627 466.627 152 460 152C453.373 152 448 146.627 448 140Z" fill="#000000" fill-rule="nonzero" opacity="1" stroke="none"/>
<path d="M568 140C568 133.373 573.373 128 580 128C586.627 128 592 133.373 592 140C592 146.627 586.627 152 580 152C573.373 152 568 146.627 568 140Z" fill="#000000" fill-rule="nonzero" opacity="1" stroke="none"/>
<path d="M608 140C608 133.373 613.373 128 620 128C626.627 128 632 133.373 632 140C632 146.627 626.627 152 620 152C613.373 152 608 146.627 608 140Z" fill="#000000" fill-rule="nonzero" opacity="1" stroke="none"/>
<path d="M648 140C648 133.373 653.373 128 660 128C666.627 128 672 133.373 672 140C672 146.627 666.627 152 660 152C653.373 152 648 146.627 648 140Z" fill="#000000" fill-rule="nonzero" opacity="1" stroke="none"/>
<path d="M408 180C408 173.373 413.373 168 420 168C426.627 168 432 173.373 432 180C432 186.627 426.627 192 420 192C413.373 192 408 186.627 408 180Z" fill="#000000" fill-rule="nonzero" opacity="1" stroke="none"/>
<path d="M528 180C528 173.373 533.373 168 540 168C546.627 168 552 173.373 552 180C552 186.627 546.627 192 540 192C533.373 192 528 186.627 528 180Z" fill="#000000" fill-rule="nonzero" opacity="1" stroke="none"/>
<path d="M608 180C608 173.373 613.373 168 620 168C626.627 168 632 173.373 632 180C632 186.627 626.627 192 620 192C613.373 192 608 186.627 608 180Z" fill="#000000" fill-rule="nonzero" opacity="1" stroke="none"/>
<path d="M488 220C488 213.373 493.373 208 500 208C506.627 208 512 213.373 512 220C512 226.627 506.627 232 500 232C493.373 232 488 226.627 488 220Z" fill="#000000" fill-rule="nonzero" opacity="1" stroke="none"/>
<path d="M528 220C528 213.373 533.373 208 540 208C546.627 208 552 213.373 552 220C552 226.627 546.627 232 540 232C533.373 232 528 226.627 528 220Z" fill="#000000" fill-rule="nonzero" opacity="1" stroke="none"/>
<path d="M608 220C608 213.373 613.373 208 620 208C626.627 208 632 213.373 632 220C632 226.627 626.627 232 620 232C613.373 232 608 226.627 608 220Z" fill="#000000" fill-rule="nonzero" opacity="1" stroke="none"/>
<path d="M648 220C648 213.373 653.373 208 660 208C666.627 208 672 213.373 672 220C672 226.627 666.627 232 660 232C653.373 232 648 226.627 648 220Z" fill="#000000" fill-rule="nonzero" opacity="1" stroke="none"/>
<path d="M688 220C688 213.373 693.373 208 700 208C706.627 208 712 213.373 712 220C712 226.627 706.627 232 700 232C693.373 232 688 226.627 688 220Z" fill="#000000" fill-rule="nonzero" opacity="1" stroke="none"/>
<path d="M528 260C528 253.373 533.373 248 540 248C546.627 248 552 253.373 552 260C552 266.627 546.627 272 540 272C533.373 272 528 266.627 528 260Z" fill="#000000" fill-rule="nonzero" opacity="1" stroke="none"/>
<path d="M648 260C648 253.373 653.373 248 660 248C666.627 248 672 253.373 672 260C672 266.627 666.627 272 660 272C653.373 272 648 266.627 648 260Z" fill="#000000" fill-rule="nonzero" opacity="1" stroke="none"/>
<path d="M728 260C728 253.373 733.373 248 740 248C746.627 248 752 253.373 752 260C752 266.627 746.627 272 740 272C733.373 272 728 266.627 728 260Z" fill="#000000" fill-rule="nonzero" opacity="1" stroke="none"/>
<path d="M408 300C408 293.373 413.373 288 420 288C426.627 288 432 293.373 432 300C432 306.627 426.627 312 420 312C413.373 312 408 306.627 408 300Z" fill="#000000" fill-rule="nonzero" opacity="1" stroke="none"/>
<path d="M448 300C448 293.373 453.373 288 460 288C466.627 288 472 293.373 472 300C472 306.627 466.627 312 460 312C453.373 312 448 306.627 448 300Z" fill="#000000" fill-rule="nonzero" opacity="1" stroke="none"/>
<path d="M528 300C528 293.373 533.373 288 540 288C546.627 288 552 293.373 552 300C552 306.627 546.627 312 540 312C533.373 312 528 306.627 528 300Z" fill="#000000" fill-rule="nonzero" opacity="1" stroke="none"/>
<path d="M408 340C408 333.373 413.373 328 420 328C426.627 328 432 333.373 432 340C432 346.627 426.627 352 420 352C413.373 352 408 346.627 408 340Z" fill="#000000" fill-rule="nonzero" opacity="1" stroke="none"/>
<path d="M488 340C488 333.373 493.373 328 500 328C506.627 328 512 333.373 512 340C512 346.627 506.627 352 500 352C493.373 352 488 346.627 488 340Z" fill="#000000" fill-rule="nonzero" opacity="1" stroke="none"/>
<path d="M568 340C568 333.373 573.373 328 580 328C586.627 328 592 333.373 592 340C592 346.627 586.627 352 580 352C573.373 352 568 346.627 568 340Z" fill="#000000" fill-rule="nonzero" opacity="1" stroke="none"/>
<path d="M648 340C648 333.373 653.373 328 660 328C666.627 328 672 333.373 672 340C672 346.627 666.627 352 660 352C653.373 352 648 346.627 648 340Z" fill="#000000" fill-rule="nonzero" opacity="1" stroke="none"/>
<path d="M728 340C728 333.373 733.373 328 740 328C746.627 328 752 333.373 752 340C752 346.627 746.627 352 740 352C733.373 352 728 346.627 728 340Z" fill="#000000" fill-rule="nonzero" opacity="1" stroke="none"/>
<path d="M528 380C528 373.373 533.373 368 540 368C546.627 368 552 373.373 552 380C552 386.627 546.627 392 540 392C533.373 392 528 386.627 528 380Z" fill="#000000" fill-rule="nonzero" opacity="1" stroke="none"/>
<path d="M568 380C568 373.373 573.373 368 580 368C586.627 368 592 373.373 592 380C592 386.627 586.627 392 580 392C573.373 392 568 386.627 568 380Z" fill="#000000" fill-rule="nonzero" opacity="1" stroke="none"/>
<path d="M648 380C648 373.373 653.373 368 660 368C666.627 368 672 373.373 672 380C672 386.627 666.627 392 660 392C653.373 392 648 386.627 648 380Z" fill="#000000" fill-rule="nonzero" opacity="1" stroke="none"/>
<path d="M88 420C88 413.373 93.3726 408 100 408C106.627 408 112 413.373 112 420C112 426.627 106.627 432 100 432C93.3726 432 88 426.627 88 420Z" fill="#000000" fill-rule="nonzero" opacity="1" stroke="none"/>
<path d="M168 420C168 413.373 173.373 408 180 408C186.627 408 192 413.373 192 420C192 426.627 186.627 432 180 432C173.373 432 168 426.627 168 420Z" fill="#000000" fill-rule="nonzero" opacity="1" stroke="none"/>
<path d="M328 420C328 413.373 333.373 408 340 408C346.627 408 352 413.373 352 420C352 426.627 346.627 432 340 432C333.373 432 328 426.627 328 420Z" fill="#000000" fill-rule="nonzero" opacity="1" stroke="none"/>
<path d="M368 420C368 413.373 373.373 408 380 408C386.627 408 392 413.373 392 420C392 426.627 386.627 432 380 432C373.373 432 368 426.627 368 420Z" fill="#000000" fill-rule="nonzero" opacity="1" stroke="none"/>
<path d="M448 420C448 413.373 453.373 408 460 408C466.627 408 472 413.373 472 420C472 426.627 466.627 432 460 432C453.373 432 448 426.627 448 420Z" fill="#000000" fill-rule="nonzero" opacity="1" stroke="none"/>
<path d="M488 420C488 413.373 493.373 408 500 408C506.627 408 512 413.373 512 420C512 426.627 506.627 432 500 432C493.373 432 488 426.627 488 420Z" fill="#000000" fill-rule="nonzero" opacity="1" stroke="none"/>
<path d="M568 420C568 413.373 573.373 408 580 408C586.627 408 592 413.373 592 420C592 426.627 586.627 432 580 432C573.373 432 568 426.627 568 420Z" fill="#000000" fill-rule="nonzero" opacity="1" stroke="none"/>
<path d="M728 420C728 413.373 733.373 408 740 408C746.627 408 752 413.373 752 420C752 426.627 746.627 432 740 432C733.373 432 728 426.627 728 420Z" fill="#000000" fill-rule="nonzero" opacity="1" stroke="none"/>
<path d="M848 420C848 413.373 853.373 408 860 408C866.627 408 872 413.373 872 420C872 426.627 866.627 432 860 432C853.373 432 848 426.627 848 420Z" fill="#000000" fill-rule="nonzero" opacity="1" stroke="none"/>
<path d="M968 420C968 413.373 973.373 408 980 408C986.627 408 992 413.373 992 420C992 426.627 986.627 432 980 432C973.373 432 968 426.627 968 420Z" fill="#000000" fill-rule="nonzero" opacity="1" stroke="none"/>
<path d="M1048 420C1048 413.373 1053.37 408 1060 408C1066.63 408 1072 413.373 1072 420C1072 426.627 1066.63 432 1060 432C1053.37 432 1048 426.627 1048 420Z" fill="#000000" fill-rule="nonzero" opacity="1" stroke="none"/>
<path d="M88 460C88 453.373 93.3726 448 100 448C106.627 448 112 453.373 112 460C112 466.627 106.627 472 100 472C93.3726 472 88 466.627 88 460Z" fill="#000000" fill-rule="nonzero" opacity="1" stroke="none"/>
<path d="M208 460C208 453.373 213.373 448 220 448C226.627 448 232 453.373 232 460C232 466.627 226.627 472 220 472C213.373 472 208 466.627 208 460Z" fill="#000000" fill-rule="nonzero" opacity="1" stroke="none"/>
<path d="M288 460C288 453.373 293.373 448 300 448C306.627 448 312 453.373 312 460C312 466.627 306.627 472 300 472C293.373 472 288 466.627 288 460Z" fill="#000000" fill-rule="nonzero" opacity="1" stroke="none"/>
<path d="M528 460C528 453.373 533.373 448 540 448C546.627 448 552 453.373 552 460C552 466.627 546.627 472 540 472C533.373 472 528 466.627 528 460Z" fill="#000000" fill-rule="nonzero" opacity="1" stroke="none"/>
<path d="M568 460C568 453.373 573.373 448 580 448C586.627 448 592 453.373 592 460C592 466.627 586.627 472 580 472C573.373 472 568 466.627 568 460Z" fill="#000000" fill-rule="nonzero" opacity="1" stroke="none"/>
<path d="M648 460C648 453.373 653.373 448 660 448C666.627 448 672 453.373 672 460C672 466.627 666.627 472 660 472C653.373 472 648 466.627 648 460Z" fill="#000000" fill-rule="nonzero" opacity="1" stroke="none"/>
<path d="M688 460C688 453.373 693.373 448 700 448C706.627 448 712 453.373 712 460C712 466.627 706.627 472 700 472C693.373 472 688 466.627 688 460Z" fill="#000000" fill-rule="nonzero" opacity="1" stroke="none"/>
<path d="M728 460C728 453.373 733.373 448 740 448C746.627 448 752 453.373 752 460C752 466.627 746.627 472 740 472C733.373 472 728 466.627 728 460Z" fill="#000000" fill-rule="nonzero" opacity="1" stroke="none"/>
<path d="M768 460C768 453.373 773.373 448 780 448C786.627 448 792 453.373 792 460C792 466.627 786.627 472 780 472C773.373 472 768 466.627 768 460Z" fill="#000000" fill-rule="nonzero" opacity="1" stroke="none"/>
<path d="M808 460C808 453.373 813.373 448 820 448C826.627 448 832 453.373 832 460C832 466.627 826.627 472 820 472C813.373 472 808 466.627 808 460Z" fill="#000000" fill-rule="nonzero" opacity="1" stroke="none"/>
<path d="M848 460C848 453.373 853.373 448 860 448C866.627 448 872 453.373 872 460C872 466.627 866.627 472 860 472C853.373 472 848 466.627 848 460Z" fill="#000000" fill-rule="nonzero" opacity="1" stroke="none"/>
<path d="M928 460C928 453.373 933.373 448 940 448C946.627 448 952 453.373 952 460C952 466.627 946.627 472 940 472C933.373 472 928 466.627 928 460Z" fill="#000000" fill-rule="nonzero" opacity="1" stroke="none"/>
<path d="M1008 460C1008 453.373 1013.37 448 1020 448C1026.63 448 1032 453.373 1032 460C1032 466.627 1026.63 472 1020 472C1013.37 472 1008 466.627 1008 460Z" fill="#000000" fill-rule="nonzero" opacity="1" stroke="none"/>
<path d="M1048 460C1048 453.373 1053.37 448 1060 448C1066.63 448 1072 453.373 1072 460C1072 466.627 1066.63 472 1060 472C1053.37 472 1048 466.627 1048 460Z" fill="#000000" fill-rule="nonzero" opacity="1" stroke="none"/>
<path d="M168 500C168 493.373 173.373 488 180 488C186.627 488 192 493.373 192 500C192 506.627 186.627 512 180 512C173.373 512 168 506.627 168 500Z" fill="#000000" fill-rule="nonzero" opacity="1" stroke="none"/>
<path d="M208 500C208 493.373 213.373 488 220 488C226.627 488 232 493.373 232 500C232 506.627 226.627 512 220 512C213.373 512 208 506.627 208 500Z" fill="#000000" fill-rule="nonzero" opacity="1" stroke="none"/>
<path d="M328 500C328 493.373 333.373 488 340 488C346.627 488 352 493.373 352 500C352 506.627 346.627 512 340 512C333.373 512 328 506.627 328 500Z" fill="#000000" fill-rule="nonzero" opacity="1" stroke="none"/>
<path d="M448 500C448 493.373 453.373 488 460 488C466.627 488 472 493.373 472 500C472 506.627 466.627 512 460 512C453.373 512 448 506.627 448 500Z" fill="#000000" fill-rule="nonzero" opacity="1" stroke="none"/>
<path d="M528 500C528 493.373 533.373 488 540 488C546.627 488 552 493.373 552 500C552 506.627 546.627 512 540 512C533.373 512 528 506.627 528 500Z" fill="#000000" fill-rule="nonzero" opacity="1" stroke="none"/>
<path d="M568 500C568 493.373 573.373 488 580 488C586.627 488 592 493.373 592 500C592 506.627 586.627 512 580 512C573.373 512 568 506.627 568 500Z" fill="#000000" fill-rule="nonzero" opacity="1" stroke="none"/>
<path d="M608 500C608 493.373 613.373 488 620 488C626.627 488 632 493.373 632 500C632 506.627 626.627 512 620 512C613.373 512 608 506.627 608 500Z" fill="#000000" fill-rule="nonzero" opacity="1" stroke="none"/>
<path d="M688 500C688 493.373 693.373 488 700 488C706.627 488 712 493.373 712 500C712 506.627 706.627 512 700 512C693.373 512 688 506.627 688 500Z" fill="#000000" fill-rule="nonzero" opacity="1" stroke="none"/>
<path d="M768 500C768 493.373 773.373 488 780 488C786.627 488 792 493.373 792 500C792 506.627 786.627 512 780 512C773.373 512 768 506.627 768 500Z" fill="#000000" fill-rule="nonzero" opacity="1" stroke="none"/>
<path d="M808 500C808 493.373 813.373 488 820 488C826.627 488 832 493.373 832 500C832 506.627 826.627 512 820 512C813.373 512 808 506.627 808 500Z" fill="#000000" fill-rule="nonzero" opacity="1" stroke="none"/>
<path d="M928 500C928 493.373 933.373 488 940 488C946.627 488 952 493.373 952 500C952 506.627 946.627 512 940 512C933.373 512 928 506.627 928 500Z" fill="#000000" fill-rule="nonzero" opacity="1" stroke="none"/>
<path d="M968 500C968 493.373 973.373 488 980 488C986.627 488 992 493.373 992 500C992 506.627 986.627 512 980 512C973.373 512 968 506.627 968 500Z" fill="#000000" fill-rule="nonzero" opacity="1" stroke="none"/>
<path d="M1048 500C1048 493.373 1053.37 488 1060 488C1066.63 488 1072 493.373 1072 500C1072 506.627 1066.63 512 1060 512C1053.37 512 1048 506.627 1048 500Z" fill="#000000" fill-rule="nonzero" opacity="1" stroke="none"/>
<path d="M128 540C128 533.373 133.373 528 140 528C146.627 528 152 533.373 152 540C152 546.627 146.627 552 140 552C133.373 552 128 546.627 128 540Z" fill="#000000" fill-rule="nonzero" opacity="1" stroke="none"/>
<path d="M168 540C168 533.373 173.373 528 180 528C186.627 528 192 533.373 192 540C192 546.627 186.627 552 180 552C173.373 552 168 546.627 168 540Z" fill="#000000" fill-rule="nonzero" opacity="1" stroke="none"/>
<path d="M208 540C208 533.373 213.373 528 220 528C226.627 528 232 533.373 232 540C232 546.627 226.627 552 220 552C213.373 552 208 546.627 208 540Z" fill="#000000" fill-rule="nonzero" opacity="1" stroke="none"/>
<path d="M288 540C288 533.373 293.373 528 300 528C306.627 528 312 533.373 312 540C312 546.627 306.627 552 300 552C293.373 552 288 546.627 288 540Z" fill="#000000" fill-rule="nonzero" opacity="1" stroke="none"/>
<path d="M448 540C448 533.373 453.373 528 460 528C466.627 528 472 533.373 472 540C472 546.627 466.627 552 460 552C453.373 552 448 546.627 448 540Z" fill="#000000" fill-rule="nonzero" opacity="1" stroke="none"/>
<path d="M488 540C488 533.373 493.373 528 500 528C506.627 528 512 533.373 512 540C512 546.627 506.627 552 500 552C493.373 552 488 546.627 488 540Z" fill="#000000" fill-rule="nonzero" opacity="1" stroke="none"/>
<path d="M528 540C528 533.373 533.373 528 540 528C546.627 528 552 533.373 552 540C552 546.627 546.627 552 540 552C533.373 552 528 546.627 528 540Z" fill="#000000" fill-rule="nonzero" opacity="1" stroke="none"/>
<path d="M568 540C568 533.373 573.373 528 580 528C586.627 528 592 533.373 592 540C592 546.627 586.627 552 580 552C573.373 552 568 546.627 568 540Z" fill="#000000" fill-rule="nonzero" opacity="1" stroke="none"/>
<path d="M688 540C688 533.373 693.373 528 700 528C706.627 528 712 533.373 712 540C712 546.627 706.627 552 700 552C693.373 552 688 546.627 688 540Z" fill="#000000" fill-rule="nonzero" opacity="1" stroke="none"/>
<path d="M768 540C768 533.373 773.373 528 780 528C786.627 528 792 533.373 792 540C792 546.627 786.627 552 780 552C773.373 552 768 546.627 768 540Z" fill="#000000" fill-rule="nonzero" opacity="1" stroke="none"/>
<path d="M928 540C928 533.373 933.373 528 940 528C946.627 528 952 533.373 952 540C952 546.627 946.627 552 940 552C933.373 552 928 546.627 928 540Z" fill="#000000" fill-rule="nonzero" opacity="1" stroke="none"/>
<path d="M288 580C288 573.373 293.373 568 300 568C306.627 568 312 573.373 312 580C312 586.627 306.627 592 300 592C293.373 592 288 586.627 288 580Z" fill="#000000" fill-rule="nonzero" opacity="1" stroke="none"/>
<path d="M328 580C328 573.373 333.373 568 340 568C346.627 568 352 573.373 352 580C352 586.627 346.627 592 340 592C333.373 592 328 586.627 328 580Z" fill="#000000" fill-rule="nonzero" opacity="1" stroke="none"/>
<path d="M488 580C488 573.373 493.373 568 500 568C506.627 568 512 573.373 512 580C512 586.627 506.627 592 500 592C493.373 592 488 586.627 488 580Z" fill="#000000" fill-rule="nonzero" opacity="1" stroke="none"/>
<path d="M568 580C568 573.373 573.373 568 580 568C586.627 568 592 573.373 592 580C592 586.627 586.627 592 580 592C573.373 592 568 586.627 568 580Z" fill="#000000" fill-rule="nonzero" opacity="1" stroke="none"/>
<path d="M688 580C688 573.373 693.373 568 700 568C706.627 568 712 573.373 712 580C712 586.627 706.627 592 700 592C693.373 592 688 586.627 688 580Z" fill="#000000" fill-rule="nonzero" opacity="1" stroke="none"/>
<path d="M808 580C808 573.373 813.373 568 820 568C826.627 568 832 573.373 832 580C832 586.627 826.627 592 820 592C813.373 592 808 586.627 808 580Z" fill="#000000" fill-rule="nonzero" opacity="1" stroke="none"/>
<path d="M1048 580C1048 573.373 1053.37 568 1060 568C1066.63 568 1072 573.373 1072 580C1072 586.627 1066.63 592 1060 592C1053.37 592 1048 586.627 1048 580Z" fill="#000000" fill-rule="nonzero" opacity="1" stroke="none"/>
<path d="M128 620C128 613.373 133.373 608 140 608C146.627 608 152 613.373 152 620C152 626.627 146.627 632 140 632C133.373 632 128 626.627 128 620Z" fill="#000000" fill-rule="nonzero" opacity="1" stroke="none"/>
<path d="M168 620C168 613.373 173.373 608 180 608C186.627 608 192 613.373 192 620C192 626.627 186.627 632 180 632C173.373 632 168 626.627 168 620Z" fill="#000000" fill-rule="nonzero" opacity="1" stroke="none"/>
<path d="M208 620C208 613.373 213.373 608 220 608C226.627 608 232 613.373 232 620C232 626.627 226.627 632 220 632C213.373 632 208 626.627 208 620Z" fill="#000000" fill-rule="nonzero" opacity="1" stroke="none"/>
<path d="M248 620C248 613.373 253.373 608 260 608C266.627 608 272 613.373 272 620C272 626.627 266.627 632 260 632C253.373 632 248 626.627 248 620Z" fill="#000000" fill-rule="nonzero" opacity="1" stroke="none"/>
<path d="M288 620C288 613.373 293.373 608 300 608C306.627 608 312 613.373 312 620C312 626.627 306.627 632 300 632C293.373 632 288 626.627 288 620Z" fill="#000000" fill-rule="nonzero" opacity="1" stroke="none"/>
<path d="M368 620C368 613.373 373.373 608 380 608C386.627 608 392 613.373 392 620C392 626.627 386.627 632 380 632C373.373 632 368 626.627 368 620Z" fill="#000000" fill-rule="nonzero" opacity="1" stroke="none"/>
<path d="M408 620C408 613.373 413.373 608 420 608C426.627 608 432 613.373 432 620C432 626.627 426.627 632 420 632C413.373 632 408 626.627 408 620Z" fill="#000000" fill-rule="nonzero" opacity="1" stroke="none"/>
<path d="M608 620C608 613.373 613.373 608 620 608C626.627 608 632 613.373 632 620C632 626.627 626.627 632 620 632C613.373 632 608 626.627 608 620Z" fill="#000000" fill-rule="nonzero" opacity="1" stroke="none"/>
<path d="M688 620C688 613.373 693.373 608 700 608C706.627 608 712 613.373 712 620C712 626.627 706.627 632 700 632C693.373 632 688 626.627 688 620Z" fill="#000000" fill-rule="nonzero" opacity="1" stroke="none"/>
<path d="M728 620C728 613.373 733.373 608 740 608C746.627 608 752 613.373 752 620C752 626.627 746.627 632 740 632C733.373 632 728 626.627 728 620Z" fill="#000000" fill-rule="nonzero" opacity="1" stroke="none"/>
<path d="M768 620C768 613.373 773.373 608 780 608C786.627 608 792 613.373 792 620C792 626.627 786.627 632 780 632C773.373 632 768 626.627 768 620Z" fill="#000000" fill-rule="nonzero" opacity="1" stroke="none"/>
<path d="M808 620C808 613.373 813.373 608 820 608C826.627 608 832 613.373 832 620C832 626.627 826.627 632 820 632C813.373 632 808 626.627 808 620Z" fill="#000000" fill-rule="nonzero" opacity="1" stroke="none"/>
<path d="M848 620C848 613.373 853.373 608 860 608C866.627 608 872 613.373 872 620C872 626.627 866.627 632 860 632C853.373 632 848 626.627 848 620Z" fill="#000000" fill-rule="nonzero" opacity="1" stroke="none"/>
<path d="M1008 620C1008 613.373 1013.37 608 1020 608C1026.63 608 1032 613.373 1032 620C1032 626.627 1026.63 632 1020 632C1013.37 632 1008 626.627 1008 620Z" fill="#000000" fill-rule="nonzero" opacity="1" stroke="none"/>
<path d="M1048 620C1048 613.373 1053.37 608 1060 608C1066.63 608 1072 613.373 1072 620C1072 626.627 1066.63 632 1060 632C1053.37 632 1048 626.627 1048 620Z" fill="#000000" fill-rule="nonzero" opacity="1" stroke="none"/>
<path d="M88 660C88 653.373 93.3726 648 100 648C106.627 648 112 653.373 112 660C112 666.627 106.627 672 100 672C93.3726 672 88 666.627 88 660Z" fill="#000000" fill-rule="nonzero" opacity="1" stroke="none"/>
<path d="M128 660C128 653.373 133.373 648 140 648C146.627 648 152 653.373 152 660C152 666.627 146.627 672 140 672C133.373 672 128 666.627 128 660Z" fill="#000000" fill-rule="nonzero" opacity="1" stroke="none"/>
<path d="M168 660C168 653.373 173.373 648 180 648C186.627 648 192 653.373 192 660C192 666.627 186.627 672 180 672C173.373 672 168 666.627 168 660Z" fill="#000000" fill-rule="nonzero" opacity="1" stroke="none"/>
<path d="M248 660C248 653.373 253.373 648 260 648C266.627 648 272 653.373 272 660C272 666.627 266.627 672 260 672C253.373 672 248 666.627 248 660Z" fill="#000000" fill-rule="nonzero" opacity="1" stroke="none"/>
<path d="M328 660C328 653.373 333.373 648 340 648C346.627 648 352 653.373 352 660C352 666.627 346.627 672 340 672C333.373 672 328 666.627 328 660Z" fill="#000000" fill-rule="nonzero" opacity="1" stroke="none"/>
<path d="M368 660C368 653.373 373.373 648 380 648C386.627 648 392 653.373 392 660C392 666.627 386.627 672 380 672C373.373 672 368 666.627 368 660Z" fill="#000000" fill-rule="nonzero" opacity="1" stroke="none"/>
<path d="M488 660C488 653.373 493.373 648 500 648C506.627 648 512 653.373 512 660C512 666.627 506.627 672 500 672C493.373 672 488 666.627 488 660Z" fill="#000000" fill-rule="nonzero" opacity="1" stroke="none"/>
<path d="M528 660C528 653.373 533.373 648 540 648C546.627 648 552 653.373 552 660C552 666.627 546.627 672 540 672C533.373 672 528 666.627 528 660Z" fill="#000000" fill-rule="nonzero" opacity="1" stroke="none"/>
<path d="M608 660C608 653.373 613.373 648 620 648C626.627 648 632 653.373 632 660C632 666.627 626.627 672 620 672C613.373 672 608 666.627 608 660Z" fill="#000000" fill-rule="nonzero" opacity="1" stroke="none"/>
<path d="M648 660C648 653.373 653.373 648 660 648C666.627 648 672 653.373 672 660C672 666.627 666.627 672 660 672C653.373 672 648 666.627 648 660Z" fill="#000000" fill-rule="nonzero" opacity="1" stroke="none"/>
<path d="M688 660C688 653.373 693.373 648 700 648C706.627 648 712 653.373 712 660C712 666.627 706.627 672 700 672C693.373 672 688 666.627 688 660Z" fill="#000000" fill-rule="nonzero" opacity="1" stroke="none"/>
<path d="M808 660C808 653.373 813.373 648 820 648C826.627 648 832 653.373 832 660C832 666.627 826.627 672 820 672C813.373 672 808 666.627 808 660Z" fill="#000000" fill-rule="nonzero" opacity="1" stroke="none"/>
<path d="M928 660C928 653.373 933.373 648 940 648C946.627 648 952 653.373 952 660C952 666.627 946.627 672 940 672C933.373 672 928 666.627 928 660Z" fill="#000000" fill-rule="nonzero" opacity="1" stroke="none"/>
<path d="M968 660C968 653.373 973.373 648 980 648C986.627 648 992 653.373 992 660C992 666.627 986.627 672 980 672C973.373 672 968 666.627 968 660Z" fill="#000000" fill-rule="nonzero" opacity="1" stroke="none"/>
<path d="M1048 660C1048 653.373 1053.37 648 1060 648C1066.63 648 1072 653.373 1072 660C1072 666.627 1066.63 672 1060 672C1053.37 672 1048 666.627 1048 660Z" fill="#000000" fill-rule="nonzero" opacity="1" stroke="none"/>
<path d="M208 700C208 693.373 213.373 688 220 688C226.627 688 232 693.373 232 700C232 706.627 226.627 712 220 712C213.373 712 208 706.627 208 700Z" fill="#000000" fill-rule="nonzero" opacity="1" stroke="none"/>
<path d="M288 700C288 693.373 293.373 688 300 688C306.627 688 312 693.373 312 700C312 706.627 306.627 712 300 712C293.373 712 288 706.627 288 700Z" fill="#000000" fill-rule="nonzero" opacity="1" stroke="none"/>
<path d="M488 700C488 693.373 493.373 688 500 688C506.627 688 512 693.373 512 700C512 706.627 506.627 712 500 712C493.373 712 488 706.627 488 700Z" fill="#000000" fill-rule="nonzero" opacity="1" stroke="none"/>
<path d="M528 700C528 693.373 533.373 688 540 688C546.627 688 552 693.373 552 700C552 706.627 546.627 712 540 712C533.373 712 528 706.627 528 700Z" fill="#000000" fill-rule="nonzero" opacity="1" stroke="none"/>
<path d="M568 700C568 693.373 573.373 688 580 688C586.627 688 592 693.373 592 700C592 706.627 586.627 712 580 712C573.373 712 568 706.627 568 700Z" fill="#000000" fill-rule="nonzero" opacity="1" stroke="none"/>
<path d="M768 700C768 693.373 773.373 688 780 688C786.627 688 792 693.373 792 700C792 706.627 786.627 712 780 712C773.373 712 768 706.627 768 700Z" fill="#000000" fill-rule="nonzero" opacity="1" stroke="none"/>
<path d="M848 700C848 693.373 853.373 688 860 688C866.627 688 872 693.373 872 700C872 706.627 866.627 712 860 712C853.373 712 848 706.627 848 700Z" fill="#000000" fill-rule="nonzero" opacity="1" stroke="none"/>
<path d="M888 700C888 693.373 893.373 688 900 688C906.627 688 912 693.373 912 700C912 706.627 906.627 712 900 712C893.373 712 888 706.627 888 700Z" fill="#000000" fill-rule="nonzero" opacity="1" stroke="none"/>
<path d="M928 700C928 693.373 933.373 688 940 688C946.627 688 952 693.373 952 700C952 706.627 946.627 712 940 712C933.373 712 928 706.627 928 700Z" fill="#000000" fill-rule="nonzero" opacity="1" stroke="none"/>
<path d="M88 740C88 733.373 93.3726 728 100 728C106.627 728 112 733.373 112 740C112 746.627 106.627 752 100 752C93.3726 752 88 746.627 88 740Z" fill="#000000" fill-rule="nonzero" opacity="1" stroke="none"/>
<path d="M128 740C128 733.373 133.373 728 140 728C146.627 728 152 733.373 152 740C152 746.627 146.627 752 140 752C133.373 752 128 746.627 128 740Z" fill="#000000" fill-rule="nonzero" opacity="1" stroke="none"/>
<path d="M168 740C168 733.373 173.373 728 180 728C186.627 728 192 733.373 192 740C192 746.627 186.627 752 180 752C173.373 752 168 746.627 168 740Z" fill="#000000" fill-rule="nonzero" opacity="1" stroke="none"/>
<path d="M208 740C208 733.373 213.373 728 220 728C226.627 728 232 733.373 232 740C232 746.627 226.627 752 220 752C213.373 752 208 746.627 208 740Z" fill="#000000" fill-rule="nonzero" opacity="1" stroke="none"/>
<path d="M288 740C288 733.373 293.373 728 300 728C306.627 728 312 733.373 312 740C312 746.627 306.627 752 300 752C293.373 752 288 746.627 288 740Z" fill="#000000" fill-rule="nonzero" opacity="1" stroke="none"/>
<path d="M328 740C328 733.373 333.373 728 340 728C346.627 728 352 733.373 352 740C352 746.627 346.627 752 340 752C333.373 752 328 746.627 328 740Z" fill="#000000" fill-rule="nonzero" opacity="1" stroke="none"/>
<path d="M368 740C368 733.373 373.373 728 380 728C386.627 728 392 733.373 392 740C392 746.627 386.627 752 380 752C373.373 752 368 746.627 368 740Z" fill="#000000" fill-rule="nonzero" opacity="1" stroke="none"/>
<path d="M568 740C568 733.373 573.373 728 580 728C586.627 728 592 733.373 592 740C592 746.627 586.627 752 580 752C573.373 752 568 746.627 568 740Z" fill="#000000" fill-rule="nonzero" opacity="1" stroke="none"/>
<path d="M688 740C688 733.373 693.373 728 700 728C706.627 728 712 733.373 712 740C712 746.627 706.627 752 700 752C693.373 752 688 746.627 688 740Z" fill="#000000" fill-rule="nonzero" opacity="1" stroke="none"/>
<path d="M728 740C728 733.373 733.373 728 740 728C746.627 728 752 733.373 752 740C752 746.627 746.627 752 740 752C733.373 752 728 746.627 728 740Z" fill="#000000" fill-rule="nonzero" opacity="1" stroke="none"/>
<path d="M768 740C768 733.373 773.373 728 780 728C786.627 728 792 733.373 792 740C792 746.627 786.627 752 780 752C773.373 752 768 746.627 768 740Z" fill="#000000" fill-rule="nonzero" opacity="1" stroke="none"/>
<path d="M808 740C808 733.373 813.373 728 820 728C826.627 728 832 733.373 832 740C832 746.627 826.627 752 820 752C813.373 752 808 746.627 808 740Z" fill="#000000" fill-rule="nonzero" opacity="1" stroke="none"/>
<path d="M848 740C848 733.373 853.373 728 860 728C866.627 728 872 733.373 872 740C872 746.627 866.627 752 860 752C853.373 752 848 746.627 848 740Z" fill="#000000" fill-rule="nonzero" opacity="1" stroke="none"/>
<path d="M888 740C888 733.373 893.373 728 900 728C906.627 728 912 733.373 912 740C912 746.627 906.627 752 900 752C893.373 752 888 746.627 888 740Z" fill="#000000" fill-rule="nonzero" opacity="1" stroke="none"/>
<path d="M1008 740C1008 733.373 1013.37 728 1020 728C1026.63 728 1032 733.373 1032 740C1032 746.627 1026.63 752 1020 752C1013.37 752 1008 746.627 1008 740Z" fill="#000000" fill-rule="nonzero" opacity="1" stroke="none"/>
<path d="M408 780C408 773.373 413.373 768 420 768C426.627 768 432 773.373 432 780C432 786.627 426.627 792 420 792C413.373 792 408 786.627 408 780Z" fill="#000000" fill-rule="nonzero" opacity="1" stroke="none"/>
<path d="M448 780C448 773.373 453.373 768 460 768C466.627 768 472 773.373 472 780C472 786.627 466.627 792 460 792C453.373 792 448 786.627 448 780Z" fill="#000000" fill-rule="nonzero" opacity="1" stroke="none"/>
<path d="M488 780C488 773.373 493.373 768 500 768C506.627 768 512 773.373 512 780C512 786.627 506.627 792 500 792C493.373 792 488 786.627 488 780Z" fill="#000000" fill-rule="nonzero" opacity="1" stroke="none"/>
<path d="M528 780C528 773.373 533.373 768 540 768C546.627 768 552 773.373 552 780C552 786.627 546.627 792 540 792C533.373 792 528 786.627 528 780Z" fill="#000000" fill-rule="nonzero" opacity="1" stroke="none"/>
<path d="M568 780C568 773.373 573.373 768 580 768C586.627 768 592 773.373 592 780C592 786.627 586.627 792 580 792C573.373 792 568 786.627 568 780Z" fill="#000000" fill-rule="nonzero" opacity="1" stroke="none"/>
<path d="M648 780C648 773.373 653.373 768 660 768C666.627 768 672 773.373 672 780C672 786.627 666.627 792 660 792C653.373 792 648 786.627 648 780Z" fill="#000000" fill-rule="nonzero" opacity="1" stroke="none"/>
<path d="M728 780C728 773.373 733.373 768 740 768C746.627 768 752 773.373 752 780C752 786.627 746.627 792 740 792C733.373 792 728 786.627 728 780Z" fill="#000000" fill-rule="nonzero" opacity="1" stroke="none"/>
<path d="M888 780C888 773.373 893.373 768 900 768C906.627 768 912 773.373 912 780C912 786.627 906.627 792 900 792C893.373 792 888 786.627 888 780Z" fill="#000000" fill-rule="nonzero" opacity="1" stroke="none"/>
<path d="M1048 780C1048 773.373 1053.37 768 1060 768C1066.63 768 1072 773.373 1072 780C1072 786.627 1066.63 792 1060 792C1053.37 792 1048 786.627 1048 780Z" fill="#000000" fill-rule="nonzero" opacity="1" stroke="none"/>
<path d="M408 820C408 813.373 413.373 808 420 808C426.627 808 432 813.373 432 820C432 826.627 426.627 832 420 832C413.373 832 408 826.627 408 820Z" fill="#000000" fill-rule="nonzero" opacity="1" stroke="none"/>
<path d="M448 820C448 813.373 453.373 808 460 808C466.627 808 472 813.373 472 820C472 826.627 466.627 832 460 832C453.373 832 448 826.627 448 820Z" fill="#000000" fill-rule="nonzero" opacity="1" stroke="none"/>
<path d="M488 820C488 813.373 493.373 808 500 808C506.627 808 512 813.373 512 820C512 826.627 506.627 832 500 832C493.373 832 488 826.627 488 820Z" fill="#000000" fill-rule="nonzero" opacity="1" stroke="none"/>
<path d="M528 820C528 813.373 533.373 808 540 808C546.627 808 552 813.373 552 820C552 826.627 546.627 832 540 832C533.373 832 528 826.627 528 820Z" fill="#000000" fill-rule="nonzero" opacity="1" stroke="none"/>
<path d="M608 820C608 813.373 613.373 808 620 808C626.627 808 632 813.373 632 820C632 826.627 626.627 832 620 832C613.373 832 608 826.627 608 820Z" fill="#000000" fill-rule="nonzero" opacity="1" stroke="none"/>
<path d="M728 820C728 813.373 733.373 808 740 808C746.627 808 752 813.373 752 820C752 826.627 746.627 832 740 832C733.373 832 728 826.627 728 820Z" fill="#000000" fill-rule="nonzero" opacity="1" stroke="none"/>
<path d="M808 820C808 813.373 813.373 808 820 808C826.627 808 832 813.373 832 820C832 826.627 826.627 832 820 832C813.373 832 808 826.627 808 820Z" fill="#000000" fill-rule="nonzero" opacity="1" stroke="none"/>
<path d="M888 820C888 813.373 893.373 808 900 808C906.627 808 912 813.373 912 820C912 826.627 906.627 832 900 832C893.373 832 888 826.627 888 820Z" fill="#000000" fill-rule="nonzero" opacity="1" stroke="none"/>
<path d="M1048 820C1048 813.373 1053.37 808 1060 808C1066.63 808 1072 813.373 1072 820C1072 826.627 1066.63 832 1060 832C1053.37 832 1048 826.627 1048 820Z" fill="#000000" fill-rule="nonzero" opacity="1" stroke="none"/>
<path d="M648 860C648 853.373 653.373 848 660 848C666.627 848 672 853.373 672 860C672 866.627 666.627 872 660 872C653.373 872 648 866.627 648 860Z" fill="#000000" fill-rule="nonzero" opacity="1" stroke="none"/>
<path d="M688 860C688 853.373 693.373 848 700 848C706.627 848 712 853.373 712 860C712 866.627 706.627 872 700 872C693.373 872 688 866.627 688 860Z" fill="#000000" fill-rule="nonzero" opacity="1" stroke="none"/>
<path d="M728 860C728 853.373 733.373 848 740 848C746.627 848 752 853.373 752 860C752 866.627 746.627 872 740 872C733.373 872 728 866.627 728 860Z" fill="#000000" fill-rule="nonzero" opacity="1" stroke="none"/>
<path d="M888 860C888 853.373 893.373 848 900 848C906.627 848 912 853.373 912 860C912 866.627 906.627 872 900 872C893.373 872 888 866.627 888 860Z" fill="#000000" fill-rule="nonzero" opacity="1" stroke="none"/>
<path d="M1048 860C1048 853.373 1053.37 848 1060 848C1066.63 848 1072 853.373 1072 860C1072 866.627 1066.63 872 1060 872C1053.37 872 1048 866.627 1048 860Z" fill="#000000" fill-rule="nonzero" opacity="1" stroke="none"/>
<path d="M448 900C448 893.373 453.373 888 460 888C466.627 888 472 893.373 472 900C472 906.627 466.627 912 460 912C453.373 912 448 906.627 448 900Z" fill="#000000" fill-rule="nonzero" opacity="1" stroke="none"/>
<path d="M568 900C568 893.373 573.373 888 580 888C586.627 888 592 893.373 592 900C592 906.627 586.627 912 580 912C573.373 912 568 906.627 568 900Z" fill="#000000" fill-rule="nonzero" opacity="1" stroke="none"/>
<path d="M688 900C688 893.373 693.373 888 700 888C706.627 888 712 893.373 712 900C712 906.627 706.627 912 700 912C693.373 912 688 906.627 688 900Z" fill="#000000" fill-rule="nonzero" opacity="1" stroke="none"/>
<path d="M728 900C728 893.373 733.373 888 740 888C746.627 888 752 893.373 752 900C752 906.627 746.627 912 740 912C733.373 912 728 906.627 728 900Z" fill="#000000" fill-rule="nonzero" opacity="1" stroke="none"/>
<path d="M768 900C768 893.373 773.373 888 780 888C786.627 888 792 893.373 792 900C792 906.627 786.627 912 780 912C773.373 912 768 906.627 768 900Z" fill="#000000" fill-rule="nonzero" opacity="1" stroke="none"/>
<path d="M808 900C808 893.373 813.373 888 820 888C826.627 888 832 893.373 832 900C832 906.627 826.627 912 820 912C813.373 912 808 906.627 808 900Z" fill="#000000" fill-rule="nonzero" opacity="1" stroke="none"/>
<path d="M848 900C848 893.373 853.373 888 860 888C866.627 888 872 893.373 872 900C872 906.627 866.627 912 860 912C853.373 912 848 906.627 848 900Z" fill="#000000" fill-rule="nonzero" opacity="1" stroke="none"/>
<path d="M888 900C888 893.373 893.373 888 900 888C906.627 888 912 893.373 912 900C912 906.627 906.627 912 900 912C893.373 912 888 906.627 888 900Z" fill="#000000" fill-rule="nonzero" opacity="1" stroke="none"/>
<path d="M1008 900C1008 893.373 1013.37 888 1020 888C1026.63 888 1032 893.373 1032 900C1032 906.627 1026.63 912 1020 912C1013.37 912 1008 906.627 1008 900Z" fill="#000000" fill-rule="nonzero" opacity="1" stroke="none"/>
<path d="M448 940C448 933.373 453.373 928 460 928C466.627 928 472 933.373 472 940C472 946.627 466.627 952 460 952C453.373 952 448 946.627 448 940Z" fill="#000000" fill-rule="nonzero" opacity="1" stroke="none"/>
<path d="M488 940C488 933.373 493.373 928 500 928C506.627 928 512 933.373 512 940C512 946.627 506.627 952 500 952C493.373 952 488 946.627 488 940Z" fill="#000000" fill-rule="nonzero" opacity="1" stroke="none"/>
<path d="M528 940C528 933.373 533.373 928 540 928C546.627 928 552 933.373 552 940C552 946.627 546.627 952 540 952C533.373 952 528 946.627 528 940Z" fill="#000000" fill-rule="nonzero" opacity="1" stroke="none"/>
<path d="M568 940C568 933.373 573.373 928 580 928C586.627 928 592 933.373 592 940C592 946.627 586.627 952 580 952C573.373 952 568 946.627 568 940Z" fill="#000000" fill-rule="nonzero" opacity="1" stroke="none"/>
<path d="M688 940C688 933.373 693.373 928 700 928C706.627 928 712 933.373 712 940C712 946.627 706.627 952 700 952C693.373 952 688 946.627 688 940Z" fill="#000000" fill-rule="nonzero" opacity="1" stroke="none"/>
<path d="M768 940C768 933.373 773.373 928 780 928C786.627 928 792 933.373 792 940C792 946.627 786.627 952 780 952C773.373 952 768 946.627 768 940Z" fill="#000000" fill-rule="nonzero" opacity="1" stroke="none"/>
<path d="M888 940C888 933.373 893.373 928 900 928C906.627 928 912 933.373 912 940C912 946.627 906.627 952 900 952C893.373 952 888 946.627 888 940Z" fill="#000000" fill-rule="nonzero" opacity="1" stroke="none"/>
<path d="M968 940C968 933.373 973.373 928 980 928C986.627 928 992 933.373 992 940C992 946.627 986.627 952 980 952C973.373 952 968 946.627 968 940Z" fill="#000000" fill-rule="nonzero" opacity="1" stroke="none"/>
<path d="M1008 940C1008 933.373 1013.37 928 1020 928C1026.63 928 1032 933.373 1032 940C1032 946.627 1026.63 952 1020 952C1013.37 952 1008 946.627 1008 940Z" fill="#000000" fill-rule="nonzero" opacity="1" stroke="none"/>
<path d="M408 980C408 973.373 413.373 968 420 968C426.627 968 432 973.373 432 980C432 986.627 426.627 992 420 992C413.373 992 408 986.627 408 980Z" fill="#000000" fill-rule="nonzero" opacity="1" stroke="none"/>
<path d="M448 980C448 973.373 453.373 968 460 968C466.627 968 472 973.373 472 980C472 986.627 466.627 992 460 992C453.373 992 448 986.627 448 980Z" fill="#000000" fill-rule="nonzero" opacity="1" stroke="none"/>
<path d="M528 980C528 973.373 533.373 968 540 968C546.627 968 552 973.373 552 980C552 986.627 546.627 992 540 992C533.373 992 528 986.627 528 980Z" fill="#000000" fill-rule="nonzero" opacity="1" stroke="none"/>
<path d="M568 980C568 973.373 573.373 968 580 968C586.627 968 592 973.373 592 980C592 986.627 586.627 992 580 992C573.373 992 568 986.627 568 980Z" fill="#000000" fill-rule="nonzero" opacity="1" stroke="none"/>
<path d="M648 980C648 973.373 653.373 968 660 968C666.627 968 672 973.373 672 980C672 986.627 666.627 992 660 992C653.373 992 648 986.627 648 980Z" fill="#000000" fill-rule="nonzero" opacity="1" stroke="none"/>
<path d="M688 980C688 973.373 693.373 968 700 968C706.627 968 712 973.373 712 980C712 986.627 706.627 992 700 992C693.373 992 688 986.627 688 980Z" fill="#000000" fill-rule="nonzero" opacity="1" stroke="none"/>
<path d="M728 980C728 973.373 733.373 968 740 968C746.627 968 752 973.373 752 980C752 986.627 746.627 992 740 992C733.373 992 728 986.627 728 980Z" fill="#000000" fill-rule="nonzero" opacity="1" stroke="none"/>
<path d="M768 980C768 973.373 773.373 968 780 968C786.627 968 792 973.373 792 980C792 986.627 786.627 992 780 992C773.373 992 768 986.627 768 980Z" fill="#000000" fill-rule="nonzero" opacity="1" stroke="none"/>
<path d="M848 980C848 973.373 853.373 968 860 968C866.627 968 872 973.373 872 980C872 986.627 866.627 992 860 992C853.373 992 848 986.627 848 980Z" fill="#000000" fill-rule="nonzero" opacity="1" stroke="none"/>
<path d="M888 980C888 973.373 893.373 968 900 968C906.627 968 912 973.373 912 980C912 986.627 906.627 992 900 992C893.373 992 888 986.627 888 980Z" fill="#000000" fill-rule="nonzero" opacity="1" stroke="none"/>
<path d="M928 980C928 973.373 933.373 968 940 968C946.627 968 952 973.373 952 980C952 986.627 946.627 992 940 992C933.373 992 928 986.627 928 980Z" fill="#000000" fill-rule="nonzero" opacity="1" stroke="none"/>
<path d="M1008 980C1008 973.373 1013.37 968 1020 968C1026.63 968 1032 973.373 1032 980C1032 986.627 1026.63 992 1020 992C1013.37 992 1008 986.627 1008 980Z" fill="#000000" fill-rule="nonzero" opacity="1" stroke="none"/>
<path d="M1048 980C1048 973.373 1053.37 968 1060 968C1066.63 968 1072 973.373 1072 980C1072 986.627 1066.63 992 1060 992C1053.37 992 1048 986.627 1048 980Z" fill="#000000" fill-rule="nonzero" opacity="1" stroke="none"/>
<path d="M488 1020C488 1013.37 493.373 1008 500 1008C506.627 1008 512 1013.37 512 1020C512 1026.63 506.627 1032 500 1032C493.373 1032 488 1026.63 488 1020Z" fill="#000000" fill-rule="nonzero" opacity="1" stroke="none"/>
<path d="M528 1020C528 1013.37 533.373 1008 540 1008C546.627 1008 552 1013.37 552 1020C552 1026.63 546.627 1032 540 1032C533.373 1032 528 1026.63 528 1020Z" fill="#000000" fill-rule="nonzero" opacity="1" stroke="none"/>
<path d="M568 1020C568 1013.37 573.373 1008 580 1008C586.627 1008 592 1013.37 592 1020C592 1026.63 586.627 1032 580 1032C573.373 1032 568 1026.63 568 1020Z" fill="#000000" fill-rule="nonzero" opacity="1" stroke="none"/>
<path d="M728 1020C728 1013.37 733.373 1008 740 1008C746.627 1008 752 1013.37 752 1020C752 1026.63 746.627 1032 740 1032C733.373 1032 728 1026.63 728 1020Z" fill="#000000" fill-rule="nonzero" opacity="1" stroke="none"/>
<path d="M848 1020C848 1013.37 853.373 1008 860 1008C866.627 1008 872 1013.37 872 1020C872 1026.63 866.627 1032 860 1032C853.373 1032 848 1026.63 848 1020Z" fill="#000000" fill-rule="nonzero" opacity="1" stroke="none"/>
<path d="M888 1020C888 1013.37 893.373 1008 900 1008C906.627 1008 912 1013.37 912 1020C912 1026.63 906.627 1032 900 1032C893.373 1032 888 1026.63 888 1020Z" fill="#000000" fill-rule="nonzero" opacity="1" stroke="none"/>
<path d="M408 1060C408 1053.37 413.373 1048 420 1048C426.627 1048 432 1053.37 432 1060C432 1066.63 426.627 1072 420 1072C413.373 1072 408 1066.63 408 1060Z" fill="#000000" fill-rule="nonzero" opacity="1" stroke="none"/>
<path d="M488 1060C488 1053.37 493.373 1048 500 1048C506.627 1048 512 1053.37 512 1060C512 1066.63 506.627 1072 500 1072C493.373 1072 488 1066.63 488 1060Z" fill="#000000" fill-rule="nonzero" opacity="1" stroke="none"/>
<path d="M568 1060C568 1053.37 573.373 1048 580 1048C586.627 1048 592 1053.37 592 1060C592 1066.63 586.627 1072 580 1072C573.373 1072 568 1066.63 568 1060Z" fill="#000000" fill-rule="nonzero" opacity="1" stroke="none"/>
<path d="M648 1060C648 1053.37 653.373 1048 660 1048C666.627 1048 672 1053.37 672 1060C672 1066.63 666.627 1072 660 1072C653.373 1072 648 1066.63 648 1060Z" fill="#000000" fill-rule="nonzero" opacity="1" stroke="none"/>
<path d="M728 1060C728 1053.37 733.373 1048 740 1048C746.627 1048 752 1053.37 752 1060C752 1066.63 746.627 1072 740 1072C733.373 1072 728 1066.63 728 1060Z" fill="#000000" fill-rule="nonzero" opacity="1" stroke="none"/>
<path d="M808 1060C808 1053.37 813.373 1048 820 1048C826.627 1048 832 1053.37 832 1060C832 1066.63 826.627 1072 820 1072C813.373 1072 808 1066.63 808 1060Z" fill="#000000" fill-rule="nonzero" opacity="1" stroke="none"/>
<path d="M928 1060C928 1053.37 933.373 1048 940 1048C946.627 1048 952 1053.37 952 1060C952 1066.63 946.627 1072 940 1072C933.373 1072 928 1066.63 928 1060Z" fill="#000000" fill-rule="nonzero" opacity="1" stroke="none"/>
<path d="M1048 1060C1048 1053.37 1053.37 1048 1060 1048C1066.63 1048 1072 1053.37 1072 1060C1072 1066.63 1066.63 1072 1060 1072C1053.37 1072 1048 1066.63 1048 1060Z" fill="#000000" fill-rule="nonzero" opacity="1" stroke="none"/>
<g opacity="1">
<path d="M220 82.7451C144.2 82.7451 82.7451 144.2 82.7451 220C82.7451 295.8 144.2 357.255 220 357.255C295.8 357.255 357.255 295.8 357.255 220C357.255 144.2 295.8 82.7451 220 82.7451ZM220 316.078C167.022 316.078 123.922 272.978 123.922 220C123.922 167.022 167.022 123.922 220 123.922C272.978 123.922 316.078 167.022 316.078 220C316.078 272.978 272.978 316.078 220 316.078Z" fill="#000000" fill-rule="nonzero" opacity="1" stroke="none"/>
</g>
<g opacity="1">
<path d="M940 82.7451C864.2 82.7451 802.745 144.2 802.745 220C802.745 295.8 864.2 357.255 940 357.255C1015.8 357.255 1077.25 295.8 1077.25 220C1077.25 144.2 1015.8 82.7451 940 82.7451ZM940 316.078C887.022 316.078 843.922 272.978 843.922 220C843.922 167.022 887.022 123.922 940 123.922C992.978 123.922 1036.08 167.022 1036.08 220C1036.08 272.978 992.978 316.078 940 316.078Z" fill="#000000" fill-rule="nonzero" opacity="1" stroke="none"/>
</g>
<g opacity="1">
<path d="M220 802.745C144.2 802.745 82.7451 864.2 82.7451 940C82.7451 1015.8 144.2 1077.25 220 1077.25C295.8 1077.25 357.255 1015.8 357.255 940C357.255 864.2 295.8 802.745 220 802.745ZM220 1036.08C167.022 1036.08 123.922 992.978 123.922 940C123.922 887.022 167.022 843.922 220 843.922C272.978 843.922 316.078 887.022 316.078 940C316.078 992.978 272.978 1036.08 220 1036.08Z" fill="#000000" fill-rule="nonzero" opacity="1" stroke="none"/>
</g>
<path d="M160 218.824C160 186.336 186.336 160 218.824 160C251.311 160 277.647 186.336 277.647 218.824C277.647 251.311 251.311 277.647 218.824 277.647C186.336 277.647 160 251.311 160 218.824Z" fill="#000000" fill-rule="nonzero" opacity="1" stroke="none"/>
<path d="M880 218.824C880 186.336 906.336 160 938.824 160C971.311 160 997.647 186.336 997.647 218.824C997.647 251.311 971.311 277.647 938.824 277.647C906.336 277.647 880 251.311 880 218.824Z" fill="#000000" fill-rule="nonzero" opacity="1" stroke="none"/>
<path d="M160 938.824C160 906.336 186.336 880 218.824 880C251.311 880 277.647 906.336 277.647 938.824C277.647 971.311 251.311 997.647 218.824 997.647C186.336 997.647 160 971.311 160 938.824Z" fill="#000000" fill-rule="nonzero" opacity="1" stroke="none"/>
</g>
</g>
</svg>
